# xmcd
#
# Track frame offsets:
#	150
#	15592
#	34193
#	54414
#	69613
#	83138
#	105006
#	124282
#	143288
#	166992
#
# Disc length: 2487 seconds
#
# Revision: 0
# Processed by: cddbd v1.5.1PL2 Copyright (c) Steve Scherf et al.
# Submitted via: dBpowerAMP V4.0
#
DISCID=7309b50a
DTITLE=edu manazas and whisky tren - beethoven hot sessions vol 1
DYEAR=1900
DGENRE=Blues
TTITLE0=watermellon man
TTITLE1=you belong to me
TTITLE2=hard luck
TTITLE3=just a feeling
TTITLE4=you`re so fine
TTITLE5=driving wheel
TTITLE6=louise
TTITLE7=talk to your daughter
TTITLE8=five long years
TTITLE9=funky
EXTD=
EXTT0=
EXTT1=
EXTT2=
EXTT3=
EXTT4=
EXTT5=
EXTT6=
EXTT7=
EXTT8=
EXTT9=
PLAYORDER=
